                                                                        S      1
,,5H625ZZ,5H625ZZ,7Hunknown,7Hunknown,32,38,7,99,15,,1.,2,2HMM,1,0.08,  G      1
15H20200606.183249,0.01,10000.,7Hunknown,7Hunknown,11,0,;               G      2
     186       1                                                00000000D      1
     186            -131       1       0                               0D      2
     514       2                                                00010000D      3
     514                       1       1                               0D      4
     510       3                                                00010000D      5
     510            -131       1       1                               0D      6
     510       4                                                00010000D      7
     510            -131       1       1                               0D      8
     510       5                                                00010000D      9
     510            -131       1       1                               0D     10
     510       6                                                00010000D     11
     510            -131       1       1                               0D     12
     510       7                                                00010000D     13
     510            -131       1       1                               0D     14
     510       8                                                00010000D     15
     510            -131       1       1                               0D     16
     510       9                                                00010000D     17
     510            -131       1       1                               0D     18
     510      10                                                00010000D     19
     510            -131       1       1                               0D     20
     510      11                                                00010000D     21
     510            -131       1       1                               0D     22
     510      12                                                00010000D     23
     510            -131       1       1                               0D     24
     510      13                                                00010000D     25
     510            -131       1       1                               0D     26
     510      14                                                00010000D     27
     510            -131       1       1                               0D     28
     508      15                                                00010000D     29
     508                       1       1                               0D     30
     508      16                                                00010000D     31
     508                       1       1                               0D     32
     508      17                                                00010000D     33
     508                       1       1                               0D     34
     508      18                                                00010000D     35
     508                       1       1                               0D     36
     508      19                                                00010000D     37
     508                       1       1                               0D     38
     508      20                                                00010000D     39
     508                       1       1                               0D     40
     508      21                                                00010000D     41
     508                       1       1                               0D     42
     508      22                                                00010000D     43
     508                       1       1                               0D     44
     508      23                                                00010000D     45
     508                       1       1                               0D     46
     508      24                                                00010000D     47
     508                       1       1                               0D     48
     508      25                                                00010000D     49
     508                       1       1                               0D     50
     508      26                                                00010000D     51
     508                       1       1                               0D     52
     508      27                                                00010000D     53
     508                       1       1                               0D     54
     508      28                                                00010000D     55
     508                       1       1                               0D     56
     508      29                                                00010000D     57
     508                       1       1                               0D     58
     508      30                                                00010000D     59
     508                       1       1                               0D     60
     508      31                                                00010000D     61
     508                       1       1                               0D     62
     508      32                                                00010000D     63
     508                       1       1                               0D     64
     126      33                                                00010000D     65
     126       0               9       0                               0D     66
     126      42                                                00010000D     67
     126       0               2       0                               0D     68
     126      44                                                00010000D     69
     126       0              10       0                               0D     70
     126      54                                                00010000D     71
     126       0              10       0                               0D     72
     126      64                                                00010000D     73
     126       0               3       0                               0D     74
     126      67                                                00010000D     75
     126       0              10       0                               0D     76
     126      77                                                00010000D     77
     126       0              10       0                               0D     78
     126      87                                                00010000D     79
     126       0              10       0                               0D     80
     126      97                                                00010000D     81
     126       0               2       0                               0D     82
     126      99                                                00010000D     83
     126       0              10       0                               0D     84
     126     109                                                00010000D     85
     126       0              10       0                               0D     86
     126     119                                                00010000D     87
     126       0               2       0                               0D     88
     126     121                                                00010000D     89
     126       0              10       0                               0D     90
     126     131                                                00010000D     91
     126       0              10       0                               0D     92
     126     141                                                00010000D     93
     126       0              10       0                               0D     94
     126     151                                                00010000D     95
     126       0               3       0                               0D     96
     126     154                                                00010000D     97
     126       0               9       0                               0D     98
     126     163                                                00010000D     99
     126       0               2       0                               0D    100
     128     165                                                00010000D    101
     128       0    -131      12       0                               0D    102
     128     177                                                00010000D    103
     128       0    -131      13       0                               0D    104
     128     190                                                00010000D    105
     128       0    -131       3       0                               0D    106
     128     193                                                00010000D    107
     128       0    -131      12       0                               0D    108
     128     205                                                00010000D    109
     128       0    -131       3       0                               0D    110
     128     208                                                00010000D    111
     128       0    -131       3       0                               0D    112
     128     211                                                00010000D    113
     128       0    -131       3       0                               0D    114
     128     214                                                00010000D    115
     128       0    -131      12       0                               0D    116
     128     226                                                00010000D    117
     128       0    -131       3       0                               0D    118
     128     229                                                00010000D    119
     128       0    -131      14       0                               0D    120
     128     243                                                00010000D    121
     128       0    -131      12       0                               0D    122
     128     255                                                00010000D    123
     128       0    -131       3       0                               0D    124
     502     258                                                00010000D    125
     502                       6       1                               0D    126
     504     264                                                00010001D    127
     504                       5       1                               0D    128
     406     269                                                00000000D    129
     406                       1      15                               0D    130
     314     270                                                00000200D    131
     314                       2       0                               0D    132
186,3,1,0,0,1,129;                                                     1P      1
514,12,5,1,7,1,9,1,11,1,13,1,15,1,17,1,19,1,21,1,23,1,25,1,27,1;       3P      2
510,101,1,1,29;                                                        5P      3
510,103,1,1,31;                                                        7P      4
510,105,2,1,33,35;                                                     9P      5
510,107,1,1,37;                                                       11P      6
510,109,2,1,39,41;                                                    13P      7
510,111,2,1,43,45;                                                    15P      8
510,113,2,1,47,49;                                                    17P      9
510,115,1,1,51;                                                       19P     10
510,117,2,1,53,55;                                                    21P     11
510,119,1,1,57;                                                       23P     12
510,121,1,1,59;                                                       25P     13
510,123,2,1,61,63;                                                    27P     14
508,4,0,127,1,1,0,0,127,2,1,0,0,127,3,0,0,0,127,2,0,0;                29P     15
508,4,0,127,4,0,0,0,127,5,1,0,0,127,6,0,0,0,127,5,0,0;                31P     16
508,1,0,127,3,1,0;                                                    33P     17
508,1,0,127,7,1,0;                                                    35P     18
508,4,0,127,8,0,0,0,127,9,1,0,0,127,7,0,0,0,127,9,0,0;                37P     19
508,1,0,127,4,1,0;                                                    39P     20
508,1,0,127,8,1,0;                                                    41P     21
508,1,0,127,10,0,0;                                                   43P     22
508,1,0,127,6,1,0;                                                    45P     23
508,1,0,127,11,0,0;                                                   47P     24
508,1,0,127,1,0,0;                                                    49P     25
508,4,0,127,11,1,0,0,127,12,1,0,0,127,13,0,0,0,127,12,0,0;            51P     26
508,1,0,127,14,1,0;                                                   53P     27
508,1,0,127,13,1,0;                                                   55P     28
508,4,0,127,15,0,0,0,127,16,1,0,0,127,10,1,0,0,127,16,0,0;            57P     29
508,4,0,127,17,0,0,0,127,18,1,0,0,127,14,0,0,0,127,18,0,0;            59P     30
508,1,0,127,17,1,0;                                                   61P     31
508,1,0,127,15,1,0;                                                   63P     32
126,8,2,0,1,0,0,-3.14159265358979,-3.14159265358979,                  65P     33
-3.14159265358979,-1.5707963267949,-1.5707963267949,0.,0.,            65P     34
1.5707963267949,1.5707963267949,3.14159265358979,                     65P     35
3.14159265358979,3.14159265358979,1.,0.707106781186548,1.,            65P     36
0.707106781186548,1.,0.707106781186548,1.,0.707106781186548,1.,       65P     37
0.,5.51091059616309D-16,4.5,0.,4.5,4.5,0.,4.5,                        65P     38
-2.75545529808154D-16,0.,4.5,-4.5,0.,0.,-4.5,0.,-4.5,-4.5,0.,         65P     39
-4.5,-2.75545529808154D-16,0.,-4.5,4.5,0.,-5.51091059616309D-16,      65P     40
4.5,-3.14159265358979,3.14159265358979,0.,0.,0.;                      65P     41
126,1,1,0,0,1,0,0.,0.,0.555555555555556,0.555555555555556,1.,1.,      67P     42
0.,0.,4.5,-2.5,0.,4.5,0.,0.555555555555556,0.,0.,0.;                  67P     43
126,8,2,0,1,0,0,-3.14159265358979,-3.14159265358979,                  69P     44
-3.14159265358979,-1.5707963267949,-1.5707963267949,0.,0.,            69P     45
1.5707963267949,1.5707963267949,3.14159265358979,                     69P     46
3.14159265358979,3.14159265358979,1.,0.707106781186548,1.,            69P     47
0.707106781186548,1.,0.707106781186548,1.,0.707106781186548,1.,       69P     48
-2.5,5.51091059616309D-16,4.5,-2.5,4.5,4.5,-2.5,4.5,                  69P     49
-2.75545529808154D-16,-2.5,4.5,-4.5,-2.5,0.,-4.5,-2.5,-4.5,-4.5,      69P     50
-2.5,-4.5,-2.75545529808154D-16,-2.5,-4.5,4.5,-2.5,                   69P     51
-5.51091059616309D-16,4.5,-3.14159265358979,3.14159265358979,0.,      69P     52
0.,0.;                                                                69P     53
126,8,2,0,1,0,0,-3.14159265358979,-3.14159265358979,                  71P     54
-3.14159265358979,-1.5707963267949,-1.5707963267949,0.,0.,            71P     55
1.5707963267949,1.5707963267949,3.14159265358979,                     71P     56
3.14159265358979,3.14159265358979,1.,0.707106781186548,1.,            71P     57
0.707106781186548,1.,0.707106781186548,1.,0.707106781186548,1.,       71P     58
2.5,-5.51091059616309D-16,4.5,2.5,-4.5,4.5,2.5,-4.5,                  71P     59
-2.75545529808154D-16,2.5,-4.5,-4.5,2.5,0.,-4.5,2.5,4.5,-4.5,         71P     60
2.5,4.5,-2.75545529808154D-16,2.5,4.5,4.5,2.5,                        71P     61
5.51091059616309D-16,4.5,-3.14159265358979,3.14159265358979,0.,       71P     62
0.,0.;                                                                71P     63
126,1,1,0,0,1,0,-0.555555555555556,-0.555555555555556,                73P     64
-0.455555555555555,-0.455555555555555,1.,1.,2.5,0.,4.5,2.05,0.,       73P     65
4.5,-0.555555555555556,-0.455555555555555,0.,0.,0.;                   73P     66
126,8,2,0,1,0,0,-3.14159265358979,-3.14159265358979,                  75P     67
-3.14159265358979,-1.5707963267949,-1.5707963267949,0.,0.,            75P     68
1.5707963267949,1.5707963267949,3.14159265358979,                     75P     69
3.14159265358979,3.14159265358979,1.,0.707106781186548,1.,            75P     70
0.707106781186548,1.,0.707106781186548,1.,0.707106781186548,1.,       75P     71
2.05,5.51091059616309D-16,4.5,2.05,4.5,4.5,2.05,4.5,                  75P     72
-2.75545529808154D-16,2.05,4.5,-4.5,2.05,0.,-4.5,2.05,-4.5,-4.5,      75P     73
2.05,-4.5,-2.75545529808154D-16,2.05,-4.5,4.5,2.05,                   75P     74
-5.51091059616309D-16,4.5,-3.14159265358979,3.14159265358979,0.,      75P     75
0.,0.;                                                                75P     76
126,8,2,0,1,0,0,-3.14159265358979,-3.14159265358979,                  77P     77
-3.14159265358979,-1.5707963267949,-1.5707963267949,0.,0.,            77P     78
1.5707963267949,1.5707963267949,3.14159265358979,                     77P     79
3.14159265358979,3.14159265358979,1.,0.707106781186548,1.,            77P     80
0.707106781186548,1.,0.707106781186548,1.,0.707106781186548,1.,       77P     81
-2.5,-3.06161699786838D-16,2.5,-2.5,-2.5,2.5,-2.5,-2.5,               77P     82
-1.53080849893419D-16,-2.5,-2.5,-2.5,-2.5,0.,-2.5,-2.5,2.5,-2.5,      77P     83
-2.5,2.5,-1.53080849893419D-16,-2.5,2.5,2.5,-2.5,                     77P     84
3.06161699786838D-16,2.5,-3.14159265358979,3.14159265358979,0.,       77P     85
0.,0.;                                                                77P     86
126,8,2,0,1,0,0,-3.14159265358979,-3.14159265358979,                  79P     87
-3.14159265358979,-1.5707963267949,-1.5707963267949,0.,0.,            79P     88
1.5707963267949,1.5707963267949,3.14159265358979,                     79P     89
3.14159265358979,3.14159265358979,1.,0.707106781186548,1.,            79P     90
0.707106781186548,1.,0.707106781186548,1.,0.707106781186548,1.,       79P     91
2.5,3.06161699786838D-16,2.5,2.5,2.5,2.5,2.5,2.5,                     79P     92
-1.53080849893419D-16,2.5,2.5,-2.5,2.5,0.,-2.5,2.5,-2.5,-2.5,         79P     93
2.5,-2.5,-1.53080849893419D-16,2.5,-2.5,2.5,2.5,                      79P     94
-3.06161699786838D-16,2.5,-3.14159265358979,3.14159265358979,0.,      79P     95
0.,0.;                                                                79P     96
126,1,1,0,0,1,0,-1.,-1.,1.,1.,1.,1.,2.5,0.,2.5,-2.5,0.,2.5,-1.,       81P     97
1.,0.,0.,0.;                                                          81P     98
126,8,2,0,1,0,0,-3.14159265358979,-3.14159265358979,                  83P     99
-3.14159265358979,-1.5707963267949,-1.5707963267949,0.,0.,            83P    100
1.5707963267949,1.5707963267949,3.14159265358979,                     83P    101
3.14159265358979,3.14159265358979,1.,0.707106781186548,1.,            83P    102
0.707106781186548,1.,0.707106781186548,1.,0.707106781186548,1.,       83P    103
2.05,7.53157781475622D-16,6.15,2.05,6.15,6.15,2.05,6.15,              83P    104
-3.76578890737811D-16,2.05,6.15,-6.15,2.05,0.,-6.15,2.05,-6.15,       83P    105
-6.15,2.05,-6.15,-3.76578890737811D-16,2.05,-6.15,6.15,2.05,          83P    106
-7.53157781475622D-16,6.15,-3.14159265358979,3.14159265358979,        83P    107
0.,0.,0.;                                                             83P    108
126,8,2,0,1,0,0,-3.14159265358979,-3.14159265358979,                  85P    109
-3.14159265358979,-1.5707963267949,-1.5707963267949,0.,0.,            85P    110
1.5707963267949,1.5707963267949,3.14159265358979,                     85P    111
3.14159265358979,3.14159265358979,1.,0.707106781186548,1.,            85P    112
0.707106781186548,1.,0.707106781186548,1.,0.707106781186548,1.,       85P    113
0.,-7.53157781475622D-16,6.15,0.,-6.15,6.15,0.,-6.15,                 85P    114
-3.76578890737811D-16,0.,-6.15,-6.15,0.,0.,-6.15,0.,6.15,-6.15,       85P    115
0.,6.15,-3.76578890737811D-16,0.,6.15,6.15,0.,                        85P    116
7.53157781475622D-16,6.15,-3.14159265358979,3.14159265358979,0.,      85P    117
0.,0.;                                                                85P    118
126,1,1,0,0,1,0,0.,0.,0.40650406504065,0.40650406504065,1.,1.,        87P    119
0.,0.,6.15,-2.5,0.,6.15,0.,0.40650406504065,0.,0.,0.;                 87P    120
126,8,2,0,1,0,0,-3.14159265358979,-3.14159265358979,                  89P    121
-3.14159265358979,-1.5707963267949,-1.5707963267949,0.,0.,            89P    122
1.5707963267949,1.5707963267949,3.14159265358979,                     89P    123
3.14159265358979,3.14159265358979,1.,0.707106781186548,1.,            89P    124
0.707106781186548,1.,0.707106781186548,1.,0.707106781186548,1.,       89P    125
-2.5,-7.53157781475622D-16,6.15,-2.5,-6.15,6.15,-2.5,-6.15,           89P    126
-3.76578890737811D-16,-2.5,-6.15,-6.15,-2.5,0.,-6.15,-2.5,6.15,       89P    127
-6.15,-2.5,6.15,-3.76578890737811D-16,-2.5,6.15,6.15,-2.5,            89P    128
7.53157781475622D-16,6.15,-3.14159265358979,3.14159265358979,0.,      89P    129
0.,0.;                                                                89P    130
126,8,2,0,1,0,0,-3.14159265358979,-3.14159265358979,                  91P    131
-3.14159265358979,-1.5707963267949,-1.5707963267949,0.,0.,            91P    132
1.5707963267949,1.5707963267949,3.14159265358979,                     91P    133
3.14159265358979,3.14159265358979,1.,0.707106781186548,1.,            91P    134
0.707106781186548,1.,0.707106781186548,1.,0.707106781186548,1.,       91P    135
-2.5,9.79717439317883D-16,8.,-2.5,8.,8.,-2.5,8.,                      91P    136
-4.89858719658941D-16,-2.5,8.,-8.,-2.5,0.,-8.,-2.5,-8.,-8.,-2.5,      91P    137
-8.,-4.89858719658941D-16,-2.5,-8.,8.,-2.5,                           91P    138
-9.79717439317883D-16,8.,-3.14159265358979,3.14159265358979,0.,       91P    139
0.,0.;                                                                91P    140
126,8,2,0,1,0,0,-3.14159265358979,-3.14159265358979,                  93P    141
-3.14159265358979,-1.5707963267949,-1.5707963267949,0.,0.,            93P    142
1.5707963267949,1.5707963267949,3.14159265358979,                     93P    143
3.14159265358979,3.14159265358979,1.,0.707106781186548,1.,            93P    144
0.707106781186548,1.,0.707106781186548,1.,0.707106781186548,1.,       93P    145
2.5,7.53157781475622D-16,6.15,2.5,6.15,6.15,2.5,6.15,                 93P    146
-3.76578890737811D-16,2.5,6.15,-6.15,2.5,0.,-6.15,2.5,-6.15,          93P    147
-6.15,2.5,-6.15,-3.76578890737811D-16,2.5,-6.15,6.15,2.5,             93P    148
-7.53157781475622D-16,6.15,-3.14159265358979,3.14159265358979,        93P    149
0.,0.,0.;                                                             93P    150
126,1,1,0,0,1,0,-0.40650406504065,-0.40650406504065,                  95P    151
-0.333333333333333,-0.333333333333333,1.,1.,2.5,0.,6.15,2.05,0.,      95P    152
6.15,-0.40650406504065,-0.333333333333333,0.,0.,0.;                   95P    153
126,8,2,0,1,0,0,-3.14159265358979,-3.14159265358979,                  97P    154
-3.14159265358979,-1.5707963267949,-1.5707963267949,0.,0.,            97P    155
1.5707963267949,1.5707963267949,3.14159265358979,                     97P    156
3.14159265358979,3.14159265358979,1.,0.707106781186548,1.,            97P    157
0.707106781186548,1.,0.707106781186548,1.,0.707106781186548,1.,       97P    158
2.5,-9.79717439317883D-16,8.,2.5,-8.,8.,2.5,-8.,                      97P    159
-4.89858719658941D-16,2.5,-8.,-8.,2.5,0.,-8.,2.5,8.,-8.,2.5,8.,       97P    160
-4.89858719658941D-16,2.5,8.,8.,2.5,9.79717439317883D-16,8.,          97P    161
-3.14159265358979,3.14159265358979,0.,0.,0.;                          97P    162
126,1,1,0,0,1,0,-0.3125,-0.3125,0.3125,0.3125,1.,1.,2.5,0.,8.,        99P    163
-2.5,0.,8.,-0.3125,0.3125,0.,0.,0.;                                   99P    164
128,1,8,1,2,0,1,0,0,1,-0.555555555555556,-0.555555555555556,0.,      101P    165
0.,-3.14159265358979,-3.14159265358979,-3.14159265358979,            101P    166
-1.5707963267949,-1.5707963267949,0.,0.,1.5707963267949,             101P    167
1.5707963267949,3.14159265358979,3.14159265358979,                   101P    168
3.14159265358979,1.,1.,0.707106781186548,0.707106781186548,1.,       101P    169
1.,0.707106781186548,0.707106781186548,1.,1.,0.707106781186548,      101P    170
0.707106781186548,1.,1.,0.707106781186548,0.707106781186548,1.,      101P    171
1.,0.,0.,4.5,-2.5,0.,4.5,0.,-4.5,4.5,-2.5,-4.5,4.5,0.,-4.5,0.,       101P    172
-2.5,-4.5,0.,0.,-4.5,-4.5,-2.5,-4.5,-4.5,0.,0.,-4.5,-2.5,0.,         101P    173
-4.5,0.,4.5,-4.5,-2.5,4.5,-4.5,0.,4.5,0.,-2.5,4.5,0.,0.,4.5,4.5,     101P    174
-2.5,4.5,4.5,0.,0.,4.5,-2.5,0.,4.5,-0.555555555555556,0.,            101P    175
-3.14159265358979,3.14159265358979;                                  101P    176
128,1,8,1,2,0,1,0,0,1,0.455555555555555,0.455555555555555,           103P    177
0.555555555555556,0.555555555555556,-3.14159265358979,               103P    178
-3.14159265358979,-3.14159265358979,-1.5707963267949,                103P    179
-1.5707963267949,0.,0.,1.5707963267949,1.5707963267949,              103P    180
3.14159265358979,3.14159265358979,3.14159265358979,1.,1.,            103P    181
0.707106781186548,0.707106781186548,1.,1.,0.707106781186548,         103P    182
0.707106781186548,1.,1.,0.707106781186548,0.707106781186548,1.,      103P    183
1.,0.707106781186548,0.707106781186548,1.,1.,2.5,0.,4.5,2.05,0.,     103P    184
4.5,2.5,-4.5,4.5,2.05,-4.5,4.5,2.5,-4.5,0.,2.05,-4.5,0.,2.5,         103P    185
-4.5,-4.5,2.05,-4.5,-4.5,2.5,0.,-4.5,2.05,0.,-4.5,2.5,4.5,-4.5,      103P    186
2.05,4.5,-4.5,2.5,4.5,0.,2.05,4.5,0.,2.5,4.5,4.5,2.05,4.5,4.5,       103P    187
2.5,0.,4.5,2.05,0.,4.5,0.455555555555555,0.555555555555556,          103P    188
-3.14159265358979,3.14159265358979;                                  103P    189
128,1,1,1,1,0,0,1,0,0,-0.451,-0.451,0.451,0.451,-0.451,-0.451,       105P    190
0.451,0.451,1.,1.,1.,1.,-2.5,-4.51,-4.51,-2.5,-4.51,4.51,-2.5,       105P    191
4.51,-4.51,-2.5,4.51,4.51,-0.451,0.451,-0.451,0.451;                 105P    192
128,1,8,1,2,0,1,0,0,1,-1.,-1.,1.,1.,-3.14159265358979,               107P    193
-3.14159265358979,-3.14159265358979,-1.5707963267949,                107P    194
-1.5707963267949,0.,0.,1.5707963267949,1.5707963267949,              107P    195
3.14159265358979,3.14159265358979,3.14159265358979,1.,1.,            107P    196
0.707106781186548,0.707106781186548,1.,1.,0.707106781186548,         107P    197
0.707106781186548,1.,1.,0.707106781186548,0.707106781186548,1.,      107P    198
1.,0.707106781186548,0.707106781186548,1.,1.,-2.5,0.,2.5,2.5,0.,     107P    199
2.5,-2.5,-2.5,2.5,2.5,-2.5,2.5,-2.5,-2.5,0.,2.5,-2.5,0.,-2.5,        107P    200
-2.5,-2.5,2.5,-2.5,-2.5,-2.5,0.,-2.5,2.5,0.,-2.5,-2.5,2.5,-2.5,      107P    201
2.5,2.5,-2.5,-2.5,2.5,0.,2.5,2.5,0.,-2.5,2.5,2.5,2.5,2.5,2.5,        107P    202
-2.5,0.,2.5,2.5,0.,2.5,-1.,1.,-3.14159265358979,                     107P    203
3.14159265358979;                                                    107P    204
128,1,1,1,1,0,0,1,0,0,-0.451,-0.451,0.451,0.451,-0.451,-0.451,       109P    205
0.451,0.451,1.,1.,1.,1.,2.5,-4.51,4.51,2.5,-4.51,-4.51,2.5,4.51,     109P    206
4.51,2.5,4.51,-4.51,-0.451,0.451,-0.451,0.451;                       109P    207
128,1,1,1,1,0,0,1,0,0,-0.616,-0.616,0.616,0.616,-0.616,-0.616,       111P    208
0.616,0.616,1.,1.,1.,1.,2.05,-6.16,6.16,2.05,-6.16,-6.16,2.05,       111P    209
6.16,6.16,2.05,6.16,-6.16,-0.616,0.616,-0.616,0.616;                 111P    210
128,1,1,1,1,0,0,1,0,0,-0.616,-0.616,0.616,0.616,-0.616,-0.616,       113P    211
0.616,0.616,1.,1.,1.,1.,0.,-6.16,-6.16,0.,-6.16,6.16,0.,6.16,        113P    212
-6.16,0.,6.16,6.16,-0.616,0.616,-0.616,0.616;                        113P    213
128,1,8,1,2,0,1,0,0,1,-0.40650406504065,-0.40650406504065,0.,0.,     115P    214
-3.14159265358979,-3.14159265358979,-3.14159265358979,               115P    215
-1.5707963267949,-1.5707963267949,0.,0.,1.5707963267949,             115P    216
1.5707963267949,3.14159265358979,3.14159265358979,                   115P    217
3.14159265358979,1.,1.,0.707106781186548,0.707106781186548,1.,       115P    218
1.,0.707106781186548,0.707106781186548,1.,1.,0.707106781186548,      115P    219
0.707106781186548,1.,1.,0.707106781186548,0.707106781186548,1.,      115P    220
1.,-2.5,0.,6.15,0.,0.,6.15,-2.5,-6.15,6.15,0.,-6.15,6.15,-2.5,       115P    221
-6.15,0.,0.,-6.15,0.,-2.5,-6.15,-6.15,0.,-6.15,-6.15,-2.5,0.,        115P    222
-6.15,0.,0.,-6.15,-2.5,6.15,-6.15,0.,6.15,-6.15,-2.5,6.15,0.,0.,     115P    223
6.15,0.,-2.5,6.15,6.15,0.,6.15,6.15,-2.5,0.,6.15,0.,0.,6.15,         115P    224
-0.40650406504065,0.,-3.14159265358979,3.14159265358979;             115P    225
128,1,1,1,1,0,0,1,0,0,-0.801,-0.801,0.801,0.801,-0.801,-0.801,       117P    226
0.801,0.801,1.,1.,1.,1.,-2.5,-8.01,-8.01,-2.5,-8.01,8.01,-2.5,       117P    227
8.01,-8.01,-2.5,8.01,8.01,-0.801,0.801,-0.801,0.801;                 117P    228
128,1,8,1,2,0,1,0,0,1,0.333333333333333,0.333333333333333,           119P    229
0.40650406504065,0.40650406504065,-3.14159265358979,                 119P    230
-3.14159265358979,-3.14159265358979,-1.5707963267949,                119P    231
-1.5707963267949,0.,0.,1.5707963267949,1.5707963267949,              119P    232
3.14159265358979,3.14159265358979,3.14159265358979,1.,1.,            119P    233
0.707106781186548,0.707106781186548,1.,1.,0.707106781186548,         119P    234
0.707106781186548,1.,1.,0.707106781186548,0.707106781186548,1.,      119P    235
1.,0.707106781186548,0.707106781186548,1.,1.,2.05,0.,6.15,2.5,       119P    236
0.,6.15,2.05,-6.15,6.15,2.5,-6.15,6.15,2.05,-6.15,0.,2.5,-6.15,      119P    237
0.,2.05,-6.15,-6.15,2.5,-6.15,-6.15,2.05,0.,-6.15,2.5,0.,-6.15,      119P    238
2.05,6.15,-6.15,2.5,6.15,-6.15,2.05,6.15,0.,2.5,6.15,0.,2.05,        119P    239
6.15,6.15,2.5,6.15,6.15,2.05,0.,6.15,2.5,0.,6.15,                    119P    240
0.333333333333333,0.40650406504065,-3.14159265358979,                119P    241
3.14159265358979;                                                    119P    242
128,1,8,1,2,0,1,0,0,1,-0.3125,-0.3125,0.3125,0.3125,                 121P    243
-3.14159265358979,-3.14159265358979,-3.14159265358979,               121P    244
-1.5707963267949,-1.5707963267949,0.,0.,1.5707963267949,             121P    245
1.5707963267949,3.14159265358979,3.14159265358979,                   121P    246
3.14159265358979,1.,1.,0.707106781186548,0.707106781186548,1.,       121P    247
1.,0.707106781186548,0.707106781186548,1.,1.,0.707106781186548,      121P    248
0.707106781186548,1.,1.,0.707106781186548,0.707106781186548,1.,      121P    249
1.,2.5,0.,8.,-2.5,0.,8.,2.5,-8.,8.,-2.5,-8.,8.,2.5,-8.,0.,-2.5,      121P    250
-8.,0.,2.5,-8.,-8.,-2.5,-8.,-8.,2.5,0.,-8.,-2.5,0.,-8.,2.5,8.,       121P    251
-8.,-2.5,8.,-8.,2.5,8.,0.,-2.5,8.,0.,2.5,8.,8.,-2.5,8.,8.,2.5,       121P    252
0.,8.,-2.5,0.,8.,-0.3125,0.3125,-3.14159265358979,                   121P    253
3.14159265358979;                                                    121P    254
128,1,1,1,1,0,0,1,0,0,-0.801,-0.801,0.801,0.801,-0.801,-0.801,       123P    255
0.801,0.801,1.,1.,1.,1.,2.5,-8.01,8.01,2.5,-8.01,-8.01,2.5,8.01,     123P    256
8.01,2.5,8.01,-8.01,-0.801,0.801,-0.801,0.801;                       123P    257
502,12,0.,-5.51091059616309D-16,4.5,-2.5,-5.51091059616309D-16,      125P    258
4.5,2.5,-5.51091059616309D-16,4.5,2.05,-5.51091059616309D-16,        125P    259
4.5,-2.5,-3.06161699786838D-16,2.5,2.5,-3.06161699786838D-16,        125P    260
2.5,2.05,-7.53157781475622D-16,6.15,0.,-7.53157781475622D-16,        125P    261
6.15,-2.5,-7.53157781475622D-16,6.15,-2.5,-9.79717439317883D-16,     125P    262
8.,2.5,-7.53157781475622D-16,6.15,2.5,-9.79717439317883D-16,8.;      125P    263
504,18,65,125,1,125,1,67,125,1,125,2,69,125,2,125,2,71,125,3,        127P    264
125,3,73,125,3,125,4,75,125,4,125,4,77,125,5,125,5,79,125,6,125,     127P    265
6,81,125,6,125,5,83,125,7,125,7,85,125,8,125,8,87,125,8,125,9,       127P    266
89,125,9,125,9,91,125,10,125,10,93,125,11,125,11,95,125,11,125,      127P    267
7,97,125,12,125,12,99,125,12,125,10;                                 127P    268
406,1,5H625ZZ;                                                       129P    269
314,62.7450980392157,62.7450980392157,62.7450980392157,13HSteel      131P    270
- Satin;                                                             131P    271
S      1G      2D    132P    271                                        T      1
